<svg width="13" height="13" viewBox="0 0 13 13" fill="none" xmlns="http://www.w3.org/2000/svg">
<path d="M6.5 3.52083C5.91078 3.52083 5.33479 3.69556 4.84486 4.02291C4.35494 4.35027 3.9731 4.81555 3.74761 5.35992C3.52212 5.90429 3.46313 6.5033 3.57808 7.08121C3.69303 7.65911 3.97677 8.18995 4.39341 8.60659C4.81005 9.02323 5.34089 9.30697 5.91879 9.42192C6.4967 9.53687 7.09571 9.47788 7.64008 9.25239C8.18445 9.02691 8.64973 8.64506 8.97709 8.15514C9.30444 7.66521 9.47917 7.08922 9.47917 6.5C9.47828 5.71015 9.16411 4.95291 8.6056 4.3944C8.0471 3.83589 7.28985 3.52173 6.5 3.52083ZM6.5 8.9375C6.01791 8.9375 5.54664 8.79454 5.1458 8.52671C4.74495 8.25887 4.43253 7.87819 4.24804 7.43279C4.06355 6.9874 4.01528 6.4973 4.10934 6.02447C4.20339 5.55164 4.43554 5.11732 4.77643 4.77643C5.11732 4.43554 5.55164 4.20339 6.02447 4.10934C6.4973 4.01528 6.9874 4.06355 7.43279 4.24804C7.87819 4.43253 8.25887 4.74495 8.52671 5.1458C8.79454 5.54664 8.9375 6.01791 8.9375 6.5C8.93677 7.14624 8.67973 7.76581 8.22277 8.22277C7.76581 8.67973 7.14624 8.93677 6.5 8.9375ZM9.47917 0H3.52083C2.58737 0.00105732 1.69245 0.372341 1.0324 1.0324C0.372341 1.69245 0.00105732 2.58737 0 3.52083V9.47917C0.00105732 10.4126 0.372341 11.3075 1.0324 11.9676C1.69245 12.6277 2.58737 12.9989 3.52083 13H9.47917C10.4126 12.9989 11.3075 12.6277 11.9676 11.9676C12.6277 11.3075 12.9989 10.4126 13 9.47917V3.52083C12.9989 2.58737 12.6277 1.69245 11.9676 1.0324C11.3075 0.372341 10.4126 0.00105732 9.47917 0ZM12.4583 9.47917C12.4574 10.269 12.1433 11.0263 11.5848 11.5848C11.0263 12.1433 10.269 12.4574 9.47917 12.4583H3.52083C2.73098 12.4574 1.97374 12.1433 1.41523 11.5848C0.856721 11.0263 0.542559 10.269 0.541667 9.47917V3.52083C0.542559 2.73098 0.856721 1.97374 1.41523 1.41523C1.97374 0.856721 2.73098 0.542559 3.52083 0.541667H9.47917C10.269 0.542559 11.0263 0.856721 11.5848 1.41523C12.1433 1.97374 12.4574 2.73098 12.4583 3.52083V9.47917ZM10.5625 2.97917C10.5625 3.0863 10.5307 3.19102 10.4712 3.2801C10.4117 3.36918 10.3271 3.4386 10.2281 3.4796C10.1291 3.5206 10.0202 3.53133 9.91516 3.51043C9.81009 3.48953 9.71357 3.43794 9.63782 3.36218C9.56206 3.28643 9.51048 3.18991 9.48958 3.08484C9.46867 2.97977 9.4794 2.87086 9.5204 2.77188C9.5614 2.6729 9.63082 2.58831 9.7199 2.52879C9.80898 2.46927 9.9137 2.4375 10.0208 2.4375C10.1644 2.43766 10.3021 2.49479 10.4037 2.59633C10.5052 2.69788 10.5623 2.83556 10.5625 2.97917Z" fill="#ABABAB"/>
</svg>
